HIERARCHY
ROOT Hips
{
	OFFSET -0.089718 121.760773 1.256875
	CHANNELS 6 Xposition Yposition Zposition Xrotation Yrotation Zrotation 
	JOINT Spine
	{
		OFFSET 0.071961 7.257324 -0.789679
		CHANNELS 3 Xrotation Yrotation Zrotation
		JOINT Spine1
		{
			OFFSET 0.000000 12.508743 -0.658066
			CHANNELS 3 Xrotation Yrotation Zrotation
			JOINT Spine1_split
			{
				OFFSET 0.000000 12.508743 -0.658066
				CHANNELS 3 Xrotation Yrotation Zrotation
				JOINT Spine2
				{
					OFFSET 0.000000 12.508743 -0.658066
					CHANNELS 3 Xrotation Yrotation Zrotation
					JOINT Neck
					{
						OFFSET 0.000000 14.033295 7.520357
						CHANNELS 3 Xrotation Yrotation Zrotation
						JOINT Head
						{
							OFFSET 0.000000 8.198502 5.703135
							CHANNELS 3 Xrotation Yrotation Zrotation
							JOINT HeadTop_End
							{
								OFFSET 0.000000 17.760834 13.332673
								CHANNELS 3 Xrotation Yrotation Zrotation
								End Site
								{
									OFFSET 0.000000 0.000000 0.000000
								}
							}
						}
					}
					JOINT LeftShoulder
					{
						OFFSET 6.292447 5.785309 -0.668987
						CHANNELS 3 Xrotation Yrotation Zrotation
						JOINT LeftShoulder_split
						{
							OFFSET 6.292447 5.785309 -0.668987
							CHANNELS 3 Xrotation Yrotation Zrotation
							JOINT LeftArm
							{
								OFFSET 13.906050 -6.096512 1.965051
								CHANNELS 3 Xrotation Yrotation Zrotation
								JOINT LeftForeArm
								{
									OFFSET 34.136707 -0.070145 0.483191
									CHANNELS 3 Xrotation Yrotation Zrotation
									JOINT LeftHand
									{
										OFFSET 40.956070 -0.000046 0.579759
										CHANNELS 3 Xrotation Yrotation Zrotation
										JOINT LeftHandThumb1
										{
											OFFSET 9.870941 -7.205917 9.687083
											CHANNELS 3 Xrotation Yrotation Zrotation
											JOINT LeftHandThumb2
											{
												OFFSET 1.819832 -1.059479 1.085292
												CHANNELS 3 Xrotation Yrotation Zrotation
												JOINT LeftHandThumb3
												{
													OFFSET 2.094803 -1.219498 1.249332
													CHANNELS 3 Xrotation Yrotation Zrotation
													JOINT LeftHandThumb4
													{
														OFFSET 4.803749 -2.796570 2.864868
														CHANNELS 3 Xrotation Yrotation Zrotation
														End Site
														{
															OFFSET 0.000000 0.000000 0.000000
														}
													}
												}
											}
										}
										JOINT LeftHandIndex1
										{
											OFFSET 18.323029 -0.939438 4.853191
											CHANNELS 3 Xrotation Yrotation Zrotation
											JOINT LeftHandIndex2
											{
												OFFSET 4.710793 -0.000031 0.066666
												CHANNELS 3 Xrotation Yrotation Zrotation
												JOINT LeftHandIndex3
												{
													OFFSET 2.876877 -0.226105 0.045824
													CHANNELS 3 Xrotation Yrotation Zrotation
													JOINT LeftHandIndex4
													{
														OFFSET 6.145302 -0.000046 0.087005
														CHANNELS 3 Xrotation Yrotation Zrotation
														End Site
														{
															OFFSET 0.000000 0.000000 0.000000
														}
													}
												}
											}
										}
										JOINT LeftHandMiddle1
										{
											OFFSET 18.011223 0.000015 0.254925
											CHANNELS 3 Xrotation Yrotation Zrotation
											JOINT LeftHandMiddle2
											{
												OFFSET 4.946175 -0.000015 0.070024
												CHANNELS 3 Xrotation Yrotation Zrotation
												JOINT LeftHandMiddle3
												{
													OFFSET 3.341888 0.000015 0.047322
													CHANNELS 3 Xrotation Yrotation Zrotation
													JOINT LeftHandMiddle4
													{
														OFFSET 4.461334 -0.000031 0.063172
														CHANNELS 3 Xrotation Yrotation Zrotation
														End Site
														{
															OFFSET 0.000000 0.000000 0.000000
														}
													}
												}
											}
										}
										JOINT LeftHandRing1
										{
											OFFSET 15.906670 -0.087616 -3.901815
											CHANNELS 3 Xrotation Yrotation Zrotation
											JOINT LeftHandRing2
											{
												OFFSET 3.526680 -0.000031 0.049965
												CHANNELS 3 Xrotation Yrotation Zrotation
												JOINT LeftHandRing3
												{
													OFFSET 2.960831 -0.000015 0.041910
													CHANNELS 3 Xrotation Yrotation Zrotation
													JOINT LeftHandRing4
													{
														OFFSET 4.926727 -0.000031 0.069761
														CHANNELS 3 Xrotation Yrotation Zrotation
														End Site
														{
															OFFSET 0.000000 0.000000 0.000000
														}
													}
												}
											}
										}
										JOINT LeftHandPinky1
										{
											OFFSET 12.886803 -0.806839 -6.620516
											CHANNELS 3 Xrotation Yrotation Zrotation
											JOINT LeftHandPinky2
											{
												OFFSET 3.326813 0.000000 0.047121
												CHANNELS 3 Xrotation Yrotation Zrotation
												JOINT LeftHandPinky3
												{
													OFFSET 3.014618 -0.000031 0.042702
													CHANNELS 3 Xrotation Yrotation Zrotation
													JOINT LeftHandPinky4
													{
														OFFSET 5.847153 0.000031 0.082745
														CHANNELS 3 Xrotation Yrotation Zrotation
														End Site
														{
															OFFSET 0.000000 0.000000 0.000000
														}
													}
												}
											}
										}
									}
								}
							}
						}
					}
					JOINT RightShoulder
					{
						OFFSET -6.292447 5.785309 -0.668987
						CHANNELS 3 Xrotation Yrotation Zrotation
						JOINT RightShoulder_split
						{
							OFFSET -6.292447 5.785309 -0.668987
							CHANNELS 3 Xrotation Yrotation Zrotation
							JOINT RightArm
							{
								OFFSET -13.906046 -6.096527 1.965051
								CHANNELS 3 Xrotation Yrotation Zrotation
								JOINT RightForeArm
								{
									OFFSET -34.136711 -0.070145 0.483195
									CHANNELS 3 Xrotation Yrotation Zrotation
									JOINT RightHand
									{
										OFFSET -40.956062 -0.000031 0.579796
										CHANNELS 3 Xrotation Yrotation Zrotation
										JOINT RightHandThumb1
										{
											OFFSET -9.870895 -7.205978 9.687082
											CHANNELS 3 Xrotation Yrotation Zrotation
											JOINT RightHandThumb2
											{
												OFFSET -1.819832 -1.059479 1.085295
												CHANNELS 3 Xrotation Yrotation Zrotation
												JOINT RightHandThumb3
												{
													OFFSET -2.094826 -1.219513 1.249285
													CHANNELS 3 Xrotation Yrotation Zrotation
													JOINT RightHandThumb4
													{
														OFFSET -4.803757 -2.796585 2.864836
														CHANNELS 3 Xrotation Yrotation Zrotation
														End Site
														{
															OFFSET 0.000000 0.000000 0.000000
														}
													}
												}
											}
										}
										JOINT RightHandIndex1
										{
											OFFSET -18.323013 -0.939499 4.853236
											CHANNELS 3 Xrotation Yrotation Zrotation
											JOINT RightHandIndex2
											{
												OFFSET -4.710800 -0.000031 0.066705
												CHANNELS 3 Xrotation Yrotation Zrotation
												JOINT RightHandIndex3
												{
													OFFSET -2.876869 -0.226089 0.045846
													CHANNELS 3 Xrotation Yrotation Zrotation
													JOINT RightHandIndex4
													{
														OFFSET -6.145317 0.000000 0.087043
														CHANNELS 3 Xrotation Yrotation Zrotation
														End Site
														{
															OFFSET 0.000000 0.000000 0.000000
														}
													}
												}
											}
										}
										JOINT RightHandMiddle1
										{
											OFFSET -18.011230 -0.000031 0.254973
											CHANNELS 3 Xrotation Yrotation Zrotation
											JOINT RightHandMiddle2
											{
												OFFSET -4.946175 0.000000 0.069982
												CHANNELS 3 Xrotation Yrotation Zrotation
												JOINT RightHandMiddle3
												{
													OFFSET -3.341881 0.000000 0.047287
													CHANNELS 3 Xrotation Yrotation Zrotation
													JOINT RightHandMiddle4
													{
														OFFSET -4.461334 -0.000031 0.063116
														CHANNELS 3 Xrotation Yrotation Zrotation
														End Site
														{
															OFFSET 0.000000 0.000000 0.000000
														}
													}
												}
											}
										}
										JOINT RightHandRing1
										{
											OFFSET -15.906685 -0.087631 -3.901773
											CHANNELS 3 Xrotation Yrotation Zrotation
											JOINT RightHandRing2
											{
												OFFSET -3.526680 -0.000046 0.049887
												CHANNELS 3 Xrotation Yrotation Zrotation
												JOINT RightHandRing3
												{
													OFFSET -2.960831 0.000015 0.041926
													CHANNELS 3 Xrotation Yrotation Zrotation
													JOINT RightHandRing4
													{
														OFFSET -4.926727 -0.000061 0.069777
														CHANNELS 3 Xrotation Yrotation Zrotation
														End Site
														{
															OFFSET 0.000000 0.000000 0.000000
														}
													}
												}
											}
										}
										JOINT RightHandPinky1
										{
											OFFSET -12.886818 -0.806839 -6.620485
											CHANNELS 3 Xrotation Yrotation Zrotation
											JOINT RightHandPinky2
											{
												OFFSET -3.326813 -0.000015 0.047130
												CHANNELS 3 Xrotation Yrotation Zrotation
												JOINT RightHandPinky3
												{
													OFFSET -3.014618 0.000000 0.042665
													CHANNELS 3 Xrotation Yrotation Zrotation
													JOINT RightHandPinky4
													{
														OFFSET -5.847153 -0.000031 0.082798
														CHANNELS 3 Xrotation Yrotation Zrotation
														End Site
														{
															OFFSET 0.000000 0.000000 0.000000
														}
													}
												}
											}
										}
									}
								}
							}
						}
					}
				}
			}
		}
	}
	JOINT LeftUpLeg
	{
		OFFSET 13.026871 -6.336296 -1.092769
		CHANNELS 3 Xrotation Yrotation Zrotation
		JOINT LeftLeg
		{
			OFFSET 0.531735 -46.096748 9.782727
			CHANNELS 3 Xrotation Yrotation Zrotation
			JOINT LeftFoot
			{
				OFFSET -0.516061 -53.427502 -12.948194
				CHANNELS 3 Xrotation Yrotation Zrotation
				JOINT LeftToeBase
				{
					OFFSET 0.192221 -14.009666 16.364061
					CHANNELS 3 Xrotation Yrotation Zrotation
					JOINT LeftToe_End
					{
						OFFSET -1.784717 -0.561736 9.474806
						CHANNELS 3 Xrotation Yrotation Zrotation
						End Site
						{
							OFFSET 0.000000 0.000000 0.000000
						}
					}
				}
			}
		}
	}
	JOINT RightUpLeg
	{
		OFFSET -12.882952 -6.336288 -1.092769
		CHANNELS 3 Xrotation Yrotation Zrotation
		JOINT RightLeg
		{
			OFFSET -0.517510 -46.096909 9.782776
			CHANNELS 3 Xrotation Yrotation Zrotation
			JOINT RightFoot
			{
				OFFSET 0.532756 -53.427311 -12.948288
				CHANNELS 3 Xrotation Yrotation Zrotation
				JOINT RightToeBase
				{
					OFFSET -0.192224 -14.009682 16.364050
					CHANNELS 3 Xrotation Yrotation Zrotation
					JOINT RightToe_End
					{
						OFFSET 1.784716 -0.561743 9.474806
						CHANNELS 3 Xrotation Yrotation Zrotation
						End Site
						{
							OFFSET 0.000000 0.000000 0.000000
						}
					}
				}
			}
		}
	}
}
MOTION
Frames: 5
Frame Time: 0.016667
1.993134 109.324524 -8.520748 -8.563075 0.669858 -6.875862 22.177356 0.498833 -9.995593 4.323412 0.146924 0.771314 0.000000 0.000000 0.000000 4.317596 0.254437 0.769914 6.233860 2.141238 -5.361030 32.391370 5.275868 -5.339062 0.000000 -0.000002 -0.000000 0.683441 -4.757085 -8.721604 0.000000 0.000000 0.000000 -17.175028 -15.967992 -55.935677 -0.024905 -12.739418 -0.120201 -5.133780 -6.968235 8.586040 2.570940 15.656240 9.969213 3.379961 10.371512 1.855505 -1.254366 8.292926 6.334298 -0.000000 -0.000000 -0.000001 0.560995 1.598595 -16.935249 0.695109 2.537970 -15.816123 0.762441 1.887496 -21.419900 0.000001 -0.000000 -0.000000 0.801777 2.434915 -20.335695 1.498403 3.633270 -31.837605 1.214705 3.249397 -28.006477 -0.000000 0.000001 0.000002 1.243137 3.443889 -24.659426 2.773511 4.881149 -46.202299 2.358203 4.541956 -41.880213 -0.000001 0.000002 -0.000000 3.608298 7.786761 -27.825277 4.016293 1.549405 -57.952871 3.472019 5.349896 -52.966088 -0.000001 -0.000001 0.000001 -0.194356 2.291444 -1.734416 0.000000 0.000000 0.000000 -14.119450 10.428890 80.009143 -0.023376 12.026095 0.120009 19.726729 11.889923 -9.745265 1.721138 -18.094086 -10.946156 1.727728 -7.962086 -2.738333 -2.910497 -6.291935 -6.874977 -0.000000 -0.000003 -0.000002 3.379249 -8.767403 22.400850 0.377511 -1.852262 9.708122 0.543212 -1.444784 17.351057 0.000001 0.000000 -0.000001 4.512812 -9.420137 27.909234 0.916555 -2.795128 23.451588 0.167741 -2.881335 21.868949 -0.000002 -0.000001 0.000001 6.075936 -10.054628 34.861169 1.759825 -3.969945 34.950522 1.018780 -4.219272 33.249702 -0.000000 -0.000001 -0.000000 7.431522 -10.399659 40.493255 2.584314 -4.765245 44.065464 2.430631 -4.634924 42.466052 0.000001 0.000001 -0.000000 -20.109168 10.000126 12.540331 40.348233 8.254482 4.203138 -12.952660 6.979176 -5.652512 -4.115593 -0.000023 -0.000003 -0.000000 -0.000003 -0.000000 -19.304464 -6.855357 -2.678789 29.783805 -8.202011 -0.622065 1.101565 -11.818101 6.884727 -4.214269 0.000029 0.000001 -0.000001 -0.000002 -0.000000 
2.080590 109.299805 -8.498836 -8.947235 0.989098 -6.886520 22.288021 0.733980 -10.077737 4.244831 0.179286 0.853542 0.000000 0.000000 0.000000 4.237875 0.289959 0.852521 6.296056 2.046059 -5.379578 32.415135 4.881101 -5.563028 0.000000 -0.000000 -0.000000 0.673834 -4.345953 -8.740468 0.000000 0.000000 0.000000 -18.686670 -17.443103 -57.710372 -0.015596 -8.352503 -0.118579 -5.333342 -5.829514 11.529183 2.597449 15.742089 9.957984 3.379962 10.371512 1.855503 -1.336221 8.137283 6.353230 -0.000000 -0.000001 -0.000003 0.643221 1.864776 -16.295419 0.695769 2.539254 -15.827611 0.754404 1.872290 -21.282333 -0.000000 -0.000001 -0.000001 0.824588 2.485956 -19.649862 1.527916 3.670276 -32.217121 1.230577 3.272366 -28.230091 0.000001 0.000000 -0.000001 1.152407 3.241001 -23.910763 2.857749 4.944139 -47.047217 2.421409 4.597282 -42.554592 -0.000000 -0.000001 -0.000000 3.343450 7.421978 -27.003197 4.153791 1.613346 -59.166883 3.583061 5.413809 -53.995941 -0.000001 0.000000 0.000002 -0.200340 2.255768 -1.873376 0.000000 0.000000 0.000000 -14.631420 11.170411 80.815167 -0.021785 11.288482 0.119714 21.757200 12.564117 -7.504383 1.718448 -18.069250 -10.936258 1.727926 -7.964147 -2.738781 -2.853612 -6.404348 -6.860136 0.000001 -0.000001 0.000001 3.482450 -8.935525 22.672827 0.377498 -1.852291 9.708258 0.543431 -1.445239 17.355130 0.000002 0.000000 -0.000001 4.592184 -9.495113 28.182192 0.916749 -2.795465 23.454685 0.189791 -2.870933 21.859723 0.000003 0.000002 -0.000001 6.100880 -10.024022 35.130651 1.760007 -3.970163 34.952667 1.044876 -4.198008 33.225476 0.000003 -0.000001 -0.000002 7.394516 -10.296154 40.756449 2.584307 -4.765245 44.065464 2.426986 -4.631742 42.427779 0.000000 -0.000001 -0.000000 -19.774670 10.012311 12.536240 40.425113 8.298045 4.235487 -13.038632 6.681312 -5.618406 -4.100137 -0.000003 -0.000000 -0.000000 -0.000002 -0.000000 -18.848482 -7.046578 -2.843027 29.851854 -8.194514 -0.531530 1.020203 -11.846897 6.929291 -4.238731 0.000008 -0.000000 -0.000000 -0.000002 -0.000000 
2.157702 109.339363 -8.440600 -9.261952 1.362010 -6.867643 22.314363 0.895732 -10.141864 4.133711 0.201983 0.930887 0.000000 0.000000 0.000000 4.125803 0.314541 0.929983 6.334328 1.940317 -5.391296 32.282636 4.521312 -5.961178 -0.000000 0.000000 0.000002 0.662091 -3.939409 -8.751215 0.000000 0.000000 0.000000 -19.729160 -18.685275 -59.299463 -0.008289 -4.838073 -0.117815 -5.880429 -4.130754 14.059001 2.621626 15.796009 9.930341 3.379962 10.371513 1.855506 -1.419162 7.979375 6.372444 -0.000000 -0.000000 -0.000002 0.730647 2.192145 -15.878250 0.696487 2.540629 -15.839817 0.745657 1.855642 -21.131934 -0.000000 -0.000000 -0.000001 0.870162 2.626336 -19.133919 1.560241 3.710249 -32.629251 1.245212 3.293370 -28.435235 0.000000 -0.000001 -0.000001 1.112053 3.159218 -23.267806 2.950286 5.011134 -47.964976 2.482774 4.649758 -43.202927 -0.000001 0.000002 -0.000000 3.159469 7.197978 -26.242564 4.304666 1.679480 -60.485833 3.691738 5.473838 -54.993958 -0.000000 0.000001 0.000000 -0.201598 2.145567 -2.007332 0.000000 0.000000 0.000000 -14.946853 11.769119 81.556782 -0.020870 10.854664 0.119572 23.636003 13.244541 -5.161352 1.712533 -18.003808 -10.910529 1.727454 -7.964211 -2.738613 -2.802204 -6.506066 -6.846437 -0.000003 0.000002 0.000001 3.589587 -9.073603 23.045553 0.377519 -1.852315 9.708452 0.542202 -1.442437 17.330898 -0.000001 0.000000 0.000000 4.678063 -9.562211 28.511219 0.916926 -2.795784 23.457544 0.208070 -2.858238 21.825287 -0.000001 0.000000 0.000000 6.140365 -10.012769 35.401861 1.760182 -3.970326 34.954545 1.065550 -4.176416 33.179792 -0.000001 0.000001 0.000001 7.382482 -10.232955 40.978850 2.584317 -4.765232 44.065498 2.421646 -4.627095 42.371348 0.000000 -0.000001 0.000001 -19.421544 10.049974 12.518458 40.364581 8.339257 4.249389 -13.080416 6.308928 -5.574243 -4.092263 -0.000003 0.000001 -0.000000 -0.000001 0.000000 -18.354296 -7.234799 -3.020475 29.795966 -8.198820 -0.433307 0.962773 -11.923452 6.976930 -4.260638 -0.000005 -0.000002 -0.000000 -0.000000 -0.000000 
2.229886 109.447487 -8.344173 -9.519225 1.761017 -6.826526 22.257594 0.981180 -10.183386 3.999442 0.214995 0.991228 0.000000 0.000000 0.000000 3.990888 0.327722 0.990231 6.336065 1.838044 -5.398909 31.969353 4.256897 -6.515810 -0.000003 -0.000001 0.000002 0.649432 -3.574099 -8.766277 0.000000 0.000000 0.000000 -20.120752 -19.599438 -60.572652 -0.003488 -2.504921 -0.117566 -6.616098 -2.058789 15.643406 2.643832 15.815482 9.886988 3.379961 10.371512 1.855502 -1.493234 7.838046 6.389687 0.000002 0.000001 -0.000004 0.819626 2.554653 -15.750304 0.697082 2.541780 -15.850045 0.737322 1.839668 -20.987865 0.000001 0.000001 0.000001 0.933631 2.842900 -18.852591 1.593153 3.750321 -33.045036 1.257352 3.310669 -28.604520 -0.000000 0.000000 -0.000003 1.118987 3.200969 -22.792821 3.044910 5.077341 -48.892926 2.536225 4.694490 -43.762641 -0.000000 0.000003 -0.000000 3.061048 7.127286 -25.603862 4.458769 1.742826 -61.820035 3.787045 5.524469 -55.861570 -0.000000 -0.000001 0.000000 -0.198739 1.964394 -2.118345 0.000000 0.000000 0.000000 -15.049994 12.287463 82.204086 -0.020613 10.729463 0.119497 25.091065 13.780469 -2.999553 1.701735 -17.910356 -10.877732 1.726537 -7.962897 -2.738056 -2.765023 -6.579734 -6.836237 -0.000001 0.000002 0.000002 3.696232 -9.177009 23.486864 0.377527 -1.852332 9.708567 0.539517 -1.436358 17.278200 0.000002 0.000003 0.000001 4.766394 -9.619946 28.868457 0.917084 -2.796041 23.459996 0.222414 -2.843675 21.767582 -0.000000 -0.000002 0.000000 6.192419 -10.022402 35.652262 1.760289 -3.970473 34.956041 1.080278 -4.155708 33.117251 -0.000001 0.000001 -0.000001 7.396066 -10.213171 41.142242 2.584301 -4.765230 44.065467 2.415243 -4.621489 42.303624 0.000000 0.000000 0.000000 -19.028794 10.120647 12.489073 40.159668 8.378607 4.247613 -13.079546 5.884121 -5.522193 -4.089942 0.000005 -0.000002 0.000000 0.000001 0.000000 -17.805755 -7.403124 -3.188309 29.598847 -8.221213 -0.343829 0.941285 -12.040747 7.034993 -4.276234 0.000007 0.000000 0.000000 -0.000000 -0.000000 
2.301613 109.620125 -8.211126 -9.733364 2.156268 -6.775521 22.122231 0.995124 -10.195124 3.849623 0.219161 1.025535 0.000000 0.000000 0.000000 3.840775 0.330078 1.024323 6.295822 1.753650 -5.408836 31.481131 4.130784 -7.171956 0.000000 -0.000001 -0.000001 0.637024 -3.276423 -8.790045 0.000000 0.000000 0.000000 -19.785414 -20.180885 -61.464394 -0.001160 -1.374355 -0.117508 -7.198963 0.171419 15.862582 2.663765 15.802491 9.832068 3.379961 10.371514 1.855508 -1.549082 7.731109 6.402756 0.000001 -0.000000 -0.000000 0.908434 2.921923 -15.938340 0.697375 2.542335 -15.855070 0.730539 1.826602 -20.870073 -0.000000 0.000000 0.000002 1.010984 3.113953 -18.839982 1.624012 3.787381 -33.431700 1.265743 3.322557 -28.721082 -0.000001 -0.000002 -0.000003 1.168086 3.355519 -22.528879 3.134386 5.137871 -49.760985 2.575509 4.726812 -44.171230 -0.000000 -0.000000 0.000000 3.046843 7.206627 -25.136824 4.604370 1.798874 -63.069571 3.857634 5.560796 -56.499830 0.000002 -0.000000 -0.000001 -0.193725 1.742875 -2.197988 0.000000 0.000000 0.000000 -14.926018 12.779477 82.724827 -0.020924 10.880043 0.119570 25.999257 14.052628 -1.260452 1.686396 -17.805166 -10.845658 1.725552 -7.960752 -2.737292 -2.748430 -6.612930 -6.831231 0.000003 -0.000001 -0.000000 3.798237 -9.243682 23.965604 0.377525 -1.852342 9.708633 0.535480 -1.427163 17.198732 -0.000002 0.000001 -0.000000 4.852858 -9.666381 29.228883 0.917193 -2.796225 23.461831 0.233132 -2.827815 21.690425 -0.000003 -0.000000 -0.000002 6.252901 -10.050833 35.864326 1.760377 -3.970577 34.957041 1.089272 -4.136903 33.044243 -0.000001 -0.000001 -0.000000 7.431659 -10.234114 41.235078 2.584318 -4.765236 44.065464 2.408546 -4.615631 42.232955 0.000000 0.000000 0.000003 -18.584781 10.225778 12.454245 39.820583 8.418119 4.235224 -13.042210 5.433871 -5.467176 -4.090439 0.000000 -0.000003 -0.000000 -0.000002 0.000000 -17.195992 -7.532420 -3.318739 29.258888 -8.266694 -0.280614 0.963972 -12.192767 7.110959 -4.282753 -0.000007 -0.000002 -0.000000 -0.000002 -0.000000 
